<svg width="302" height="102" xmlns="http://www.w3.org/2000/svg">
 <!-- Created with Method Draw - http://github.com/duopixel/Method-Draw/ -->
 <defs>
  <filter id="svg_5_blur">
   <feGaussianBlur stdDeviation="0"/>
  </filter>
 </defs>
 <g>
  <title>background</title>
  <rect x="-1" y="-1" width="304" height="104" id="canvas_background" fill="none"/>
  <g id="canvasGrid" display="none">
   <rect id="svg_1" width="300" height="100" x="1" y="1" stroke-width="0" fill="url(#gridpattern)"/>
  </g>
 </g>
 <g>
  <title>Layer 1</title>
  <text fill="#000000" stroke="#8CD79F" stroke-width="0" x="5.5" y="71.45313" id="svg_5" font-size="47" font-family="'Courier New', Courier, monospace" text-anchor="start" xml:space="preserve" font-weight="bold" font-style="italic" filter="url(#svg_5_blur)">Reside</text>
  <text fill="#FFAC8D" stroke="#8CD79F" stroke-width="0" x="175.5" y="71.45313" id="svg_8" font-size="47" font-family="'Courier New', Courier, monospace" text-anchor="start" xml:space="preserve" font-weight="bold" font-style="italic" filter="url(#svg_5_blur)">cely</text>
  <path fill="#FFAC8D" stroke-width="0" d="m140.79188,22.29965l0,5.43628l10.17835,0l4.97511,12.25783l28.01001,0l9.18382,-18.6372l-43.54481,0l0,0.94296l-8.80247,0l0,0.00015l-0.00001,-0.00002zm23.25672,23.71815c0,1.92978 -1.8501,3.49414 -4.13219,3.49414s-4.13237,-1.5645 -4.13237,-3.49414s1.8501,-3.49399 4.13237,-3.49399s4.13219,1.56436 4.13219,3.49399zm19.13789,0c0,1.92978 -1.8501,3.49414 -4.13219,3.49414s-4.13237,-1.5645 -4.13237,-3.49414s1.85028,-3.49399 4.13237,-3.49399s4.13219,1.56436 4.13219,3.49399z" id="svg_9" transform="rotate(15 166.96553039550784,35.4342498779297) " stroke="#8CD79F"/>
 </g>
</svg>