<svg width="302" height="102" xmlns="http://www.w3.org/2000/svg">
 <!-- Created with Method Draw - http://github.com/duopixel/Method-Draw/ -->
 <defs>
  <filter id="svg_5_blur">
   <feGaussianBlur stdDeviation="0"/>
  </filter>
 </defs>
 <g>
  <title>background</title>
  <rect fill="none" id="canvas_background" height="104" width="304" y="-1" x="-1"/>
  <g display="none" id="canvasGrid">
   <rect fill="url(#gridpattern)" stroke-width="0" y="1" x="1" height="100" width="300" id="svg_1"/>
  </g>
 </g>
 <g>
  <title>Layer 1</title>
  <text filter="url(#svg_5_blur)" font-style="italic" font-weight="bold" xml:space="preserve" text-anchor="start" font-family="'Courier New', Courier, monospace" font-size="47" id="svg_5" y="71.45313" x="5.5" stroke-width="0" stroke="#8CD79F" fill="#000000">Reside</text>
  <text filter="url(#svg_5_blur)" font-style="italic" font-weight="bold" xml:space="preserve" text-anchor="start" font-family="'Courier New', Courier, monospace" font-size="47" id="svg_8" y="71.45313" x="175.5" stroke-width="0" stroke="#8CD79F" fill="#FFAC8D">cely</text>
  <path stroke="#8CD79F" transform="rotate(15 99.96551513671874,31.434246063232443) " id="svg_9" d="m73.79188,18.29965l0,5.43628l10.17835,0l4.97511,12.25783l28.01001,0l9.18382,-18.6372l-43.54481,0l0,0.94296l-8.80247,0l0,0.00015zm23.25672,23.71815c0,1.92978 -1.8501,3.49414 -4.13219,3.49414s-4.13237,-1.5645 -4.13237,-3.49414s1.8501,-3.49399 4.13237,-3.49399s4.13219,1.56436 4.13219,3.49399zm19.13789,0c0,1.92978 -1.8501,3.49414 -4.13219,3.49414s-4.13237,-1.5645 -4.13237,-3.49414s1.85028,-3.49399 4.13237,-3.49399s4.13219,1.56436 4.13219,3.49399z" stroke-width="0" fill="#FFAC8D"/>
 </g>
</svg>