<svg width="302" height="102" xmlns="http://www.w3.org/2000/svg">
 <!-- Created with Method Draw - http://github.com/duopixel/Method-Draw/ -->
 <defs>
  <filter id="svg_5_blur">
   <feGaussianBlur stdDeviation="0"/>
  </filter>
 </defs>
 <g>
  <title>background</title>
  <rect x="-1" y="-1" width="304" height="104" id="canvas_background" fill="none"/>
  <g id="canvasGrid" display="none">
   <rect id="svg_1" width="300" height="100" x="1" y="1" stroke-width="0" fill="url(#gridpattern)"/>
  </g>
 </g>
 <g>
  <title>Layer 1</title>
  <text fill="#000000" stroke="#8CD79F" stroke-width="0" x="5.5" y="71.45313" id="svg_5" font-size="47" font-family="'Courier New', Courier, monospace" text-anchor="start" xml:space="preserve" font-weight="normal" font-style="italic" filter="url(#svg_5_blur)">Reside</text>
  <text fill="#FFAC8D" stroke="#8CD79F" stroke-width="0" x="175.5" y="71.45313" id="svg_8" font-size="47" font-family="'Courier New', Courier, monospace" text-anchor="start" xml:space="preserve" font-weight="bold" font-style="italic" filter="url(#svg_5_blur)">cely</text>
  <path fill="#FFAC8D" stroke-width="0" d="m78.0325,18.58865l0,5.21319l9.13863,0l4.4669,11.75481l25.14879,0l8.24569,-17.8724l-39.09671,0l0,0.90426l-7.9033,0l0,0.00014zm20.88105,22.74484c0,1.85059 -1.66111,3.35075 -3.71009,3.35075s-3.71025,-1.5003 -3.71025,-3.35075s1.66111,-3.35061 3.71025,-3.35061s3.71009,1.50016 3.71009,3.35061zm17.18296,0c0,1.85059 -1.66111,3.35075 -3.71009,3.35075s-3.71025,-1.5003 -3.71025,-3.35075s1.66127,-3.35061 3.71025,-3.35061s3.71009,1.50016 3.71009,3.35061z" id="svg_9" stroke="#8CD79F" transform="rotate(15 101.5325012207031,31.184244155883817) "/>
 </g>
</svg>