<svg width="400" height="100" xmlns="http://www.w3.org/2000/svg">
 <!-- Created with Method Draw - http://github.com/duopixel/Method-Draw/ -->
 <defs>
  <filter id="svg_5_blur">
   <feGaussianBlur stdDeviation="0" in="SourceGraphic"/>
  </filter>
 </defs>
 <g>
  <title>background</title>
  <rect fill="none" id="canvas_background" height="102" width="402" y="-1" x="-1"/>
  <g display="none" overflow="visible" y="0" x="0" height="100%" width="100%" id="canvasGrid">
   <rect fill="url(#gridpattern)" stroke-width="0" y="0" x="0" height="100%" width="100%"/>
  </g>
 </g>
 <g>
  <title>Layer 1</title>
  <text filter="url(#svg_5_blur)" font-style="italic" font-weight="normal" xml:space="preserve" text-anchor="start" font-family="'Courier New', Courier, monospace" font-size="47" id="svg_5" y="64.45313" x="2.5" stroke-width="0" stroke="#8CD79F" fill="#000000">Reside</text>
  <text filter="url(#svg_5_blur)" font-style="italic" font-weight="bold" xml:space="preserve" text-anchor="start" font-family="'Courier New', Courier, monospace" font-size="47" id="svg_8" y="63.45313" x="170.5" stroke-width="0" stroke="#8CD79F" fill="#FFAC8D">cely</text>
  <path transform="rotate(15 98.53250122070314,24.18424224853516) " stroke="#8CD79F" id="svg_9" d="m75.0325,11.58865l0,5.21319l9.13863,0l4.4669,11.75481l25.14879,0l8.24569,-17.8724l-39.09671,0l0,0.90426l-7.9033,0l0,0.00014zm20.88105,22.74484c0,1.85059 -1.66111,3.35075 -3.71009,3.35075s-3.71025,-1.5003 -3.71025,-3.35075s1.66111,-3.35061 3.71025,-3.35061s3.71009,1.50016 3.71009,3.35061zm17.18296,0c0,1.85059 -1.66111,3.35075 -3.71009,3.35075s-3.71025,-1.5003 -3.71025,-3.35075s1.66127,-3.35061 3.71025,-3.35061s3.71009,1.50016 3.71009,3.35061z" stroke-width="0" fill="#FFAC8D"/>
 </g>
</svg>